<svg width="512" height="512" viewBox="0 0 512 512" fill="none" xmlns="http://www.w3.org/2000/svg">
  <defs>
    <linearGradient id="bg" x1="64" y1="48" x2="448" y2="464" gradientUnits="userSpaceOnUse">
      <stop stop-color="#1E88E5"/>
      <stop offset="1" stop-color="#00BCD4"/>
    </linearGradient>
    <linearGradient id="panel" x1="124" y1="110" x2="388" y2="390" gradientUnits="userSpaceOnUse">
      <stop stop-color="#0F172A"/>
      <stop offset="1" stop-color="#111827"/>
    </linearGradient>
  </defs>
  <rect x="48" y="48" width="416" height="416" rx="104" fill="url(#bg)"/>
  <rect x="112" y="96" width="288" height="320" rx="36" fill="url(#panel)"/>
  <rect x="140" y="128" width="232" height="44" rx="16" fill="#0B1220" stroke="#5EEAD4" stroke-width="8"/>
  <circle cx="170" cy="150" r="9" fill="#22C55E"/>
  <circle cx="198" cy="150" r="9" fill="#F59E0B"/>
  <circle cx="226" cy="150" r="9" fill="#EF4444"/>
  <rect x="140" y="198" width="102" height="82" rx="18" fill="#0B1220" stroke="#38BDF8" stroke-width="8"/>
  <rect x="270" y="198" width="102" height="82" rx="18" fill="#0B1220" stroke="#FACC15" stroke-width="8"/>
  <rect x="140" y="304" width="102" height="82" rx="18" fill="#0B1220" stroke="#34D399" stroke-width="8"/>
  <rect x="270" y="304" width="102" height="82" rx="18" fill="#0B1220" stroke="#FB7185" stroke-width="8"/>
  <path d="M170 249h42" stroke="#38BDF8" stroke-width="10" stroke-linecap="round"/>
  <path d="M300 228v22m0 0h22m-22 0h-22" stroke="#FACC15" stroke-width="10" stroke-linecap="round" stroke-linejoin="round"/>
  <path d="M162 360l18-22 16 12 24-30" stroke="#34D399" stroke-width="10" stroke-linecap="round" stroke-linejoin="round"/>
  <path d="M308 332c-16 0-28 13-28 28 0 16 12 28 28 28 15 0 28-12 28-28 0-15-13-28-28-28Zm0 14v18m0 0 10 10" stroke="#FB7185" stroke-width="10" stroke-linecap="round" stroke-linejoin="round"/>
</svg>
